mastitorrents.com
  
http://mastitorrents.com/forums/index.php








MASTI TORRENTS RELEASERS [ MTR ]

    Where Quality Matters!











description:


TNA.Sacrifice.2011.PPV.HDTV.XviD-XS@mastitorrents 

General Information 
Complete name : TNA.Sacrifice.2011.PPV.HDTV.XviD-XS.avi 
Format : AVI 
Format/Info : Audio Video Interleave 
Format profile : OpenDML 
File size : 1.48 GiB 
Duration : 2hr 53mn 48s 
Overall bit rate : 1 202 Kbps 
Writing application : Lavf51.12.1 
Video 
ID : 0 
Format : MPEG-4 Visual 
Format profile : Simple@L1 
Format settings, BVOP : No 
Format settings, QPel : No 
Format settings, GMC : No warppoints 
Format settings, Matrix : Default (H.263) 
Codec ID : DX50 
Codec ID/Hint : DivX 5 
Duration : 2hr 53mn 48s 
Bit rate : 1 074 Kbps 
Width : 624 pixels 
Height : 352 pixels 
Display aspect ratio : 16:9 
Frame rate : 29.970 fps 
Color space : YUV 
Chroma subsampling : 4:2:0 
Bit depth : 8 bits 
Scan type : Progressive 
Bits/(Pixel*Frame) : 0.163 
Stream size : 460 MiB (30%) 
Writing library : Lavc51.40.4 
Audio 
ID : 1 
Format : MPEG Audio 
Format version : Version 1 
Format profile : Layer 3 
Mode : Joint stereo 
Mode extension : MS Stereo 
Codec ID : 55 
Codec ID/Hint : MP3 
Duration : 2hr 53mn 48s 
Bit rate mode : Constant 
Bit rate : 128 Kbps 
Channel(s) : 2 channels 
Sampling rate : 48.0 KHz 
Stream size : 2.59 MiB (0%) 
Alignment : Aligned on interleaves 
Interleave, duration : 508 ms (15.23 video frames)










****check out our MTR TEAMS other releases****
 
http://thepiratebay.org/user/amanrulz/
          
http://thepiratebay.org/user/tdkdemon/
 
http://thepiratebay.org/user/HDvideos/














    <<<<<<<SUPERFAST RELEASES BROUGHT TO YOU BY>>>>>>

          


                         Masti Torrent Releasers [ MTR ]